<?xml version="1.0" standalone="no"?>
<!DOCTYPE svg PUBLIC "-//W3C//DTD SVG 20010904//EN"
 "http://www.w3.org/TR/2001/REC-SVG-20010904/DTD/svg10.dtd">
<svg version="1.0" xmlns="http://www.w3.org/2000/svg"
 width="736.000000pt" height="425.000000pt" viewBox="0 0 736.000000 425.000000"
 preserveAspectRatio="xMidYMid meet">

<g transform="translate(0.000000,425.000000) scale(0.100000,-0.100000)"
fill="#000000" stroke="none">
<path d="M2065 2880 c11 -5 34 -23 50 -40 17 -17 41 -41 54 -53 13 -12 34 -32
48 -44 28 -27 33 -28 33 -9 0 7 -17 26 -37 42 -20 15 -58 47 -85 71 -27 24
-56 43 -66 42 -14 0 -14 -2 3 -9z"/>
<path d="M2008 2873 c7 -3 16 -2 19 1 4 3 -2 6 -13 5 -11 0 -14 -3 -6 -6z"/>
<path d="M1934 2856 c-11 -8 -33 -39 -48 -70 -16 -31 -32 -56 -36 -56 -15 0
-68 -103 -81 -155 -6 -27 -20 -59 -30 -71 -37 -40 -18 -43 24 -3 53 51 80 65
197 105 52 17 94 37 93 43 -2 6 4 11 12 11 8 0 15 5 15 10 0 25 -142 -13 -230
-60 l-55 -30 50 45 c28 25 53 45 58 45 4 0 7 5 7 10 0 19 -25 10 -64 -22 -22
-18 -37 -28 -35 -22 24 51 41 70 93 101 33 20 55 38 48 41 -6 2 -21 -2 -32 -8
-12 -6 -24 -10 -26 -7 -11 11 42 81 70 93 24 10 26 13 11 14 -11 0 -30 -6 -41
-14z"/>
<path d="M2060 2824 c0 -5 14 -23 32 -41 l32 -33 -32 6 c-62 12 -31 -11 40
-31 l73 -20 42 -80 c23 -44 43 -84 43 -88 0 -4 -12 1 -27 13 -25 18 -133 60
-155 60 -19 0 -6 -18 22 -30 16 -7 27 -16 24 -21 -3 -5 1 -6 9 -4 17 7 107
-42 107 -58 0 -7 3 -23 6 -37 l5 -25 -23 27 c-13 14 -59 43 -103 63 l-80 36
-90 -10 c-107 -13 -149 -24 -193 -51 -29 -18 -33 -25 -31 -58 3 -46 33 -80
122 -138 65 -42 90 -67 45 -43 -82 42 -140 84 -160 117 -20 33 -23 35 -26 15
-2 -15 -16 -27 -48 -39 -25 -9 -50 -27 -56 -38 -6 -12 -16 -24 -23 -28 -16 -9
-62 -104 -133 -273 -92 -219 -86 -199 -67 -234 8 -17 15 -37 13 -44 -6 -34 36
-118 72 -142 25 -17 189 -26 543 -31 203 -3 344 -1 355 5 10 5 78 13 152 18
74 4 116 9 92 11 -24 2 -42 6 -40 10 2 4 17 33 33 64 l29 57 -26 103 c-14 57
-44 151 -67 209 -22 58 -41 121 -41 141 0 22 -7 41 -20 53 -11 10 -20 30 -20
45 0 35 -40 72 -112 104 -31 14 -60 30 -64 37 -4 7 -8 38 -9 69 -1 43 -10 71
-38 124 -20 37 -37 76 -37 87 0 12 -15 26 -42 40 -24 12 -62 37 -85 56 -24 19
-43 31 -43 27z m222 -421 c-17 -31 -210 -204 -216 -194 -4 5 9 18 27 30 34 21
146 130 173 169 19 27 31 23 16 -5z m-242 -43 c0 -5 -7 -10 -15 -10 -8 0 -15
5 -15 10 0 6 7 10 15 10 8 0 15 -4 15 -10z m120 -24 c0 -7 -24 -34 -54 -60
-70 -60 -96 -60 -159 -3 -51 48 -61 73 -24 63 12 -3 49 -7 82 -8 l60 -1 -58
-6 c-57 -6 -57 -6 -42 -28 12 -17 26 -23 56 -23 50 0 52 20 2 21 -38 2 -38 2
7 8 25 4 56 13 70 21 14 7 27 14 30 14 3 1 4 4 3 9 -2 4 4 7 12 7 8 0 15 -6
15 -14z m-340 -59 l59 -33 -67 2 c-59 3 -67 5 -76 26 -8 20 -10 21 -13 5 -6
-22 32 -78 97 -146 l49 -51 -52 -2 c-29 -1 -74 0 -101 0 -29 2 -58 -4 -71 -12
-27 -18 -35 -12 -35 27 0 29 1 29 18 14 10 -10 21 -17 24 -17 12 0 17 30 6 36
-7 4 -8 3 -4 -4 4 -7 5 -12 3 -12 -3 0 -14 16 -26 36 -12 19 -25 32 -31 29 -5
-3 -8 -54 -6 -123 2 -64 2 -111 -1 -103 -5 11 -7 11 -14 0 -6 -11 -15 -6 -38
21 -42 49 -39 23 4 -34 20 -25 32 -46 28 -46 -4 0 3 -9 17 -20 25 -19 25 -20
3 -20 -27 0 -42 -20 -16 -21 10 -1 -2 -7 -26 -15 -59 -18 -79 -39 -31 -31 19
4 46 9 60 13 23 7 23 5 -7 -20 -18 -15 -33 -37 -33 -49 0 -18 8 -13 51 28 27
28 47 42 43 33 -3 -11 -1 -18 5 -18 6 0 11 5 11 10 0 6 4 10 10 10 5 0 9 -12
8 -27 -1 -16 2 -49 6 -75 l8 -48 -88 0 c-76 0 -91 3 -111 22 -13 12 -23 30
-23 40 0 10 -4 18 -9 18 -9 0 -22 55 -23 105 -1 17 11 57 27 90 15 33 47 105
70 160 79 183 94 207 145 227 54 21 72 18 150 -25z m446 2 c-6 -4 -22 -10 -35
-14 l-24 -7 24 24 c17 17 27 21 35 14 9 -8 9 -13 0 -17z m178 1 c17 -6 26 -17
26 -32 0 -12 9 -32 21 -44 14 -15 22 -39 25 -71 3 -44 2 -46 -11 -29 -15 20
-45 31 -45 17 0 -4 6 -13 13 -21 10 -12 9 -12 -5 -1 -21 16 -25 -1 -4 -18 7
-6 22 -8 32 -4 16 6 16 3 -4 -24 -33 -46 -51 -59 -57 -39 -3 9 -7 23 -10 32
-3 9 -14 18 -25 21 -28 7 -26 17 20 82 38 55 49 81 32 81 -4 0 -16 -15 -26
-32 -49 -85 -105 -108 -62 -25 8 15 13 27 11 27 -2 0 -10 2 -18 6 -9 3 -30
-14 -58 -48 l-44 -52 35 24 35 24 -30 -36 c-21 -25 -39 -37 -57 -37 -28 -1
-28 0 -28 59 0 41 4 60 13 60 9 0 9 3 -1 9 -10 6 -6 11 17 19 17 6 31 16 31
21 0 13 65 31 137 40 6 0 23 -3 37 -9z m-588 -63 c9 -8 15 -87 7 -87 -5 0 -31
23 -58 51 l-50 52 49 -7 c27 -3 51 -7 52 -9z m31 -69 c-2 -13 -4 -3 -4 22 0
25 2 35 4 23 2 -13 2 -33 0 -45z m78 41 c16 -7 12 -8 -15 -4 l-35 4 29 -16
c36 -19 149 -13 196 11 l30 14 0 -59 0 -59 -135 0 -135 0 0 60 c0 56 2 60 23
59 12 0 31 -5 42 -10z m232 -86 c-2 -16 -4 -5 -4 22 0 28 2 40 4 28 2 -13 2
-35 0 -50z m372 -117 c53 -148 64 -204 50 -253 -16 -60 -39 -73 -124 -73 l-71
0 0 60 c1 33 2 60 4 60 2 0 16 -7 32 -15 36 -18 38 -13 8 15 l-23 21 43 -15
c24 -9 53 -22 65 -31 29 -20 34 -19 41 7 4 17 -3 32 -27 57 l-32 34 31 -21
c48 -33 49 -14 1 29 -35 32 -49 38 -85 39 -39 0 -43 2 -37 20 5 15 3 18 -9 14
-9 -3 -16 -2 -16 3 0 16 36 44 51 40 8 -2 11 -2 6 1 -4 2 6 19 23 38 16 19 30
39 30 44 0 24 10 4 39 -74z m-71 -161 c-8 -8 -48 8 -42 16 3 5 14 4 25 -2 12
-6 19 -12 17 -14z"/>
<path d="M1640 2225 c0 -9 9 -30 21 -46 18 -25 18 -28 3 -22 -13 5 -9 -4 12
-30 24 -31 35 -37 66 -37 20 0 40 5 43 10 6 10 -61 80 -117 121 -25 18 -28 18
-28 4z"/>
<path d="M1700 2222 c0 -4 14 -21 32 -38 l31 -29 -22 32 c-23 35 -41 50 -41
35z"/>
<path d="M1530 1903 c0 -20 -8 -36 -22 -46 l-23 -16 25 0 c51 -1 74 43 39 75
-18 17 -19 16 -19 -13z"/>
<path d="M2310 2214 c0 -8 5 -12 10 -9 6 3 10 10 10 16 0 5 -4 9 -10 9 -5 0
-10 -7 -10 -16z"/>
<path d="M2443 2158 c-6 -7 -16 -23 -22 -36 -12 -23 -12 -23 14 -6 33 21 52
54 32 54 -8 0 -19 -6 -24 -12z"/>
<path d="M1980 2580 c0 -6 28 -10 64 -10 35 0 73 -3 83 -6 10 -3 7 2 -7 10
-28 17 -140 22 -140 6z"/>
<path d="M4265 2211 c-16 -3 -30 -12 -30 -20 0 -14 -19 -22 -79 -36 -34 -7
-156 -121 -156 -145 0 -18 143 -222 177 -252 11 -10 37 -24 59 -32 31 -11 38
-18 36 -36 -2 -23 -2 -23 86 -17 188 14 305 81 338 194 38 129 -23 257 -146
312 -77 34 -206 48 -285 32z m140 -86 c17 -35 20 -60 20 -190 0 -113 -4 -157
-15 -179 -33 -64 -75 -60 -98 10 -19 57 -27 238 -13 304 23 108 68 131 106 55z"/>
<path d="M4875 2211 c-8 -14 28 -31 67 -31 61 0 63 -6 63 -147 1 -112 4 -135
24 -180 79 -178 362 -242 492 -112 65 65 90 132 100 266 8 130 18 152 75 168
23 6 39 17 39 25 0 13 -25 15 -150 15 -133 0 -150 -2 -153 -17 -2 -12 5 -19
25 -24 15 -3 35 -8 45 -10 40 -11 70 -173 48 -264 -8 -35 -24 -64 -50 -91 -32
-33 -43 -39 -79 -39 -33 0 -49 6 -71 28 -41 41 -51 93 -48 244 l3 133 35 5
c43 7 62 18 55 31 -8 12 -512 12 -520 0z"/>
<path d="M5848 2210 c-26 -7 -36 -34 -37 -111 -1 -36 4 -61 12 -68 17 -13 24
-6 42 36 9 20 28 39 55 53 48 25 139 38 148 22 9 -14 7 -401 -2 -410 -4 -4
-35 -11 -69 -17 -41 -7 -63 -15 -65 -25 -2 -13 35 -15 290 -14 279 1 325 6
286 30 -7 5 -42 13 -78 19 l-65 10 2 200 c2 110 3 203 3 208 0 11 54 9 87 -4
51 -19 104 -62 118 -96 10 -23 19 -31 29 -27 13 5 16 23 16 88 0 44 -4 87 -9
95 -7 11 -74 14 -374 15 -201 1 -376 -1 -389 -4z"/>
</g>
</svg>
